HIERARCHY
ROOT Hips
{
  OFFSET 0.000000 0.000000 0.000000
  CHANNELS 6 Xposition Yposition Zposition Xrotation Yrotation Zrotation
  JOINT Spine
  {
    OFFSET 1.388230 22.849755 -8.157144
    CHANNELS 3 Xrotation Yrotation Zrotation
    JOINT Chest
    {
      OFFSET 1.388230 22.849755 -8.157144
      CHANNELS 3 Xrotation Yrotation Zrotation
      JOINT Neck
      {
        OFFSET 0.386562 8.498444 -3.690407
        CHANNELS 3 Xrotation Yrotation Zrotation
        JOINT Head
        {
          OFFSET 0.662911 7.396516 -7.447500
          CHANNELS 3 Xrotation Yrotation Zrotation
          End Site
          {
            OFFSET 0.198873 2.218955 -2.234250
          }
        }
      }
      JOINT LeftShoulder
      {
        OFFSET 17.248308 -1.208605 -0.261267
        CHANNELS 3 Xrotation Yrotation Zrotation
        JOINT LeftArm
        {
          OFFSET 7.635523 -21.435821 1.774202
          CHANNELS 3 Xrotation Yrotation Zrotation
          JOINT LeftForeArm
          {
            OFFSET 7.643843 -21.327462 -9.147581
            CHANNELS 3 Xrotation Yrotation Zrotation
            JOINT LeftHand
            {
              OFFSET 0.473402 -5.275506 -2.178749
              CHANNELS 3 Xrotation Yrotation Zrotation
              End Site
              {
                OFFSET 0.142021 -1.582652 -0.653625
              }
            }
          }
        }
      }
      JOINT RightShoulder
      {
        OFFSET -17.248308 1.208605 0.261267
        CHANNELS 3 Xrotation Yrotation Zrotation
        JOINT RightArm
        {
          OFFSET -12.133127 -21.363330 5.693170
          CHANNELS 3 Xrotation Yrotation Zrotation
          JOINT RightForeArm
          {
            OFFSET -7.740244 -22.047532 -5.230031
            CHANNELS 3 Xrotation Yrotation Zrotation
            JOINT RightHand
            {
              OFFSET -0.480044 -5.557554 -1.525311
              CHANNELS 3 Xrotation Yrotation Zrotation
              End Site
              {
                OFFSET -0.144013 -1.667266 -0.457593
              }
            }
          }
        }
      }
    }
  }
  JOINT LeftUpLeg
  {
    OFFSET 11.699587 -0.675443 -0.599665
    CHANNELS 3 Xrotation Yrotation Zrotation
    JOINT LeftLeg
    {
      OFFSET -6.527727 -38.483662 1.737457
      CHANNELS 3 Xrotation Yrotation Zrotation
      JOINT LeftFoot
      {
        OFFSET 3.065902 -35.809878 12.679608
        CHANNELS 3 Xrotation Yrotation Zrotation
        End Site
        {
          OFFSET 0.919771 -10.742963 3.803882
        }
      }
    }
  }
  JOINT RightUpLeg
  {
    OFFSET -11.699587 0.675443 0.599665
    CHANNELS 3 Xrotation Yrotation Zrotation
    JOINT RightLeg
    {
      OFFSET -1.173808 -37.981520 -1.210152
      CHANNELS 3 Xrotation Yrotation Zrotation
      JOINT RightFoot
      {
        OFFSET -7.846448 -39.021816 7.691272
        CHANNELS 3 Xrotation Yrotation Zrotation
        End Site
        {
          OFFSET -2.353934 -11.706545 2.307382
        }
      }
    }
  }
}
MOTION
Frames: 20
Frame Time: 0.083333
2.771524 59.370204 2.565234 -3.192085 -0.431179 -1.600441 0.000000 0.000000 0.000000 1.413386 2.210490 4.898572 -0.008568 1.101793 -0.946502 5.000000 0.000000 0.000000 7.261303 0.729722 18.992869 -5.769064 0.209906 -23.424598 82.764576 -36.117066 25.948517 0.000000 0.000000 0.000000 14.238078 -14.848042 -59.446407 -4.024301 17.992016 50.416682 102.230452 -10.068606 -8.262915 0.000000 0.000000 0.000000 -3.376095 1.246853 4.139613 8.569204 -2.272086 -6.890229 0.000000 0.000000 0.000000 11.394739 1.440558 -8.753555 -9.270908 -2.091366 12.632102 0.000000 0.000000 0.000000
1.891389 59.071724 2.403500 -0.785184 -0.345056 -1.073131 0.000000 0.000000 0.000000 -0.297247 1.874571 4.205883 -0.098334 1.116945 -0.805331 5.000000 0.000000 0.000000 4.308955 0.606376 18.423745 -5.722820 0.190241 -22.639534 81.511000 -37.867675 26.805434 0.000000 0.000000 0.000000 19.417455 -14.893363 -57.419822 -5.211327 13.318853 51.946715 -18.946991 43.338078 -100.089588 0.000000 0.000000 0.000000 -5.885796 1.267516 4.567734 7.125692 -1.970466 -6.252875 0.000000 0.000000 0.000000 7.680200 1.394902 -8.738144 -8.913113 -1.872236 12.521948 0.000000 0.000000 0.000000
0.993653 58.915189 2.394298 2.111725 -0.440193 -0.931339 0.000000 0.000000 0.000000 -2.570478 1.833774 4.085242 -0.128729 1.199490 -0.693100 5.000000 0.000000 0.000000 2.890765 0.372080 17.088043 -5.089357 -0.039880 -21.052445 59.670452 -43.608904 46.695392 0.000000 0.000000 0.000000 18.533018 -14.340229 -51.814400 -7.563062 7.867532 48.991077 -32.897325 16.797503 -103.140378 0.000000 0.000000 0.000000 -7.272494 1.239065 5.447368 6.334682 -1.501838 -5.910407 0.000000 0.000000 0.000000 2.161326 1.223931 -8.249863 -4.631460 -1.214481 12.207107 0.000000 0.000000 0.000000
0.423063 58.876804 2.206983 4.372211 -0.551233 -0.920437 0.000000 0.000000 0.000000 -4.870965 1.909552 4.091066 -0.223184 1.222115 -0.699312 5.000000 0.000000 0.000000 0.493940 -0.076084 14.254492 -5.478153 0.099787 -17.979451 41.843494 -45.643620 62.051928 0.000000 0.000000 0.000000 11.437364 -12.137751 -39.836881 -6.273317 7.187078 36.676421 -48.655263 -5.061046 -49.622560 0.000000 0.000000 0.000000 -8.357805 1.222489 6.359169 6.221546 -1.171580 -5.862807 0.000000 0.000000 0.000000 -4.583275 0.891372 -7.521866 3.106234 -0.334823 11.480969 0.000000 0.000000 0.000000
0.152990 58.858716 1.263416 6.182053 -0.622642 -0.854027 0.000000 0.000000 0.000000 -6.603601 1.959929 4.072139 -0.397541 1.140923 -0.834700 5.000000 0.000000 0.000000 0.321767 -0.492045 10.313473 -5.386864 -0.043861 -13.799899 30.190707 -45.107349 71.907201 0.000000 0.000000 0.000000 5.741394 -8.536467 -23.675227 -4.299924 5.892312 18.833107 -63.217168 -9.184283 -30.668060 0.000000 0.000000 0.000000 -9.923968 1.533421 7.015677 8.807003 -1.754610 -6.615051 0.000000 0.000000 0.000000 -4.506726 0.869668 -7.893953 0.592445 -0.087201 12.413655 0.000000 0.000000 0.000000
-0.130310 58.868958 1.099075 6.373826 -0.564434 -0.626300 0.000000 0.000000 0.000000 -7.015247 1.974637 3.878179 -0.502061 0.937933 -1.087754 5.000000 0.000000 0.000000 0.499575 -0.777908 8.199638 -5.286849 -0.064337 -11.731498 27.810294 -44.886808 73.895549 0.000000 0.000000 0.000000 3.339997 -5.907934 -15.039858 -2.961200 4.306756 8.600613 -64.775315 -7.002145 -21.582718 0.000000 0.000000 0.000000 -9.416949 1.479313 6.570054 8.890207 -1.720484 -6.382649 0.000000 0.000000 0.000000 -3.868019 0.782649 -7.924788 -0.321537 0.035583 12.506400 0.000000 0.000000 0.000000
-0.625130 58.972299 2.314035 5.772854 -0.458531 -0.377076 0.000000 0.000000 0.000000 -6.739182 1.984076 3.676464 -0.480595 0.757827 -1.299303 5.000000 0.000000 0.000000 0.569211 -1.001790 8.145367 -4.308880 -0.080320 -11.825889 42.294270 -45.303865 60.984557 0.000000 0.000000 0.000000 2.444416 -4.494349 -11.836412 -0.006198 3.337514 4.806727 -65.310718 -8.775477 -28.653956 0.000000 0.000000 0.000000 -7.840992 1.414579 6.408302 8.838605 -1.629577 -6.001275 0.000000 0.000000 0.000000 -2.574966 0.668307 -7.242004 -0.025597 0.172147 12.320049 0.000000 0.000000 0.000000
-1.163157 59.105460 4.030128 4.158901 -0.372838 -0.372912 0.000000 0.000000 0.000000 -5.709559 2.012098 3.660577 -0.428674 0.612869 -1.442590 5.000000 0.000000 0.000000 -0.169988 -1.452881 10.243569 -1.415719 -0.195485 -14.297249 29.009788 -43.184994 72.567841 0.000000 0.000000 0.000000 1.803603 -2.542383 -7.239199 3.314214 1.794207 -0.403747 -62.496757 -4.687370 -11.697966 0.000000 0.000000 0.000000 -4.033317 1.358445 7.191204 10.351187 -1.701560 -6.322908 0.000000 0.000000 0.000000 0.696276 0.578630 -5.595997 4.148958 -0.098909 11.462867 0.000000 0.000000 0.000000
-1.585296 59.336582 4.369353 0.514944 -0.323922 -0.807509 0.000000 0.000000 0.000000 -3.459379 2.171627 4.041355 -0.259995 0.389628 -1.629053 5.000000 0.000000 0.000000 -2.096924 -1.460097 15.224574 2.032911 -0.913923 -19.700605 46.428235 -43.499447 55.922572 0.000000 0.000000 0.000000 2.631593 -2.073716 -5.048997 -1.178805 1.082081 -2.701745 -63.202306 -5.931491 -13.788136 0.000000 0.000000 0.000000 -0.018815 1.450494 8.065289 11.489885 -1.699842 -6.290359 0.000000 0.000000 0.000000 4.841605 0.714578 -4.531249 5.520055 -0.340467 11.060446 0.000000 0.000000 0.000000
-1.788662 59.973615 3.322902 -3.408759 -0.371869 -1.474956 0.000000 0.000000 0.000000 -0.399767 2.299006 4.518420 -0.104868 0.017266 -1.831321 5.000000 0.000000 0.000000 -1.129826 0.055652 24.560032 4.355702 -2.640663 -29.291437 85.540523 -28.402377 22.408722 0.000000 0.000000 0.000000 3.836091 -2.359909 -4.301887 -2.439457 1.713808 -2.874328 -64.495113 -6.867065 -17.555926 0.000000 0.000000 0.000000 0.921876 1.921279 9.209916 10.952706 -1.474783 -5.563950 0.000000 0.000000 0.000000 5.929872 1.289777 -3.387779 4.320887 -0.211172 11.049985 0.000000 0.000000 0.000000
-1.767704 60.761296 2.301377 -4.401147 -0.797976 -2.651546 0.000000 0.000000 0.000000 0.598074 2.371536 5.044937 -0.000270 -0.468195 -1.841886 5.000000 0.000000 0.000000 1.488859 1.579146 34.852918 3.789111 -3.168901 -39.594237 104.952408 4.445319 8.342271 0.000000 0.000000 0.000000 4.761340 -1.867957 -3.241437 -1.236738 1.841415 -2.497706 -57.763578 -14.263966 -47.562665 0.000000 0.000000 0.000000 1.878456 2.563276 10.498599 8.976985 -1.144343 -4.806730 0.000000 0.000000 0.000000 7.063709 2.139146 -1.935273 2.416121 -0.079047 10.809517 0.000000 0.000000 0.000000
-1.658765 61.253826 2.977480 -5.258832 -1.396669 -4.204682 0.000000 0.000000 0.000000 0.821665 2.392378 5.416427 0.223524 -0.782230 -1.423029 5.000000 0.000000 0.000000 6.623909 2.884663 44.902260 1.808467 -2.284678 -49.575983 108.222167 22.776766 6.177729 0.000000 0.000000 0.000000 5.451019 -1.687836 -3.389288 -0.108424 2.222239 -1.139376 -41.311859 -9.617785 -65.516680 0.000000 0.000000 0.000000 3.289250 2.937573 10.941067 4.973484 -0.463559 -3.871081 0.000000 0.000000 0.000000 9.556298 3.075421 -1.141851 -3.674584 0.076514 10.436842 0.000000 0.000000 0.000000
-1.678652 61.456018 3.536376 -5.582230 -1.870541 -5.370966 0.000000 0.000000 0.000000 0.745338 2.330064 5.595843 0.106060 -0.784973 -0.919391 5.000000 0.000000 0.000000 9.164754 3.487890 52.044209 -0.019071 -0.672729 -56.225031 106.972598 22.058706 6.179775 0.000000 0.000000 0.000000 5.046280 -1.617725 -5.482387 -0.432272 2.514816 2.110046 -39.780946 -21.022936 -102.464446 0.000000 0.000000 0.000000 6.496604 3.139861 10.906797 -0.956046 0.871979 -2.353998 0.000000 0.000000 0.000000 14.918136 4.453492 -0.191277 -14.334293 0.049018 9.424996 0.000000 0.000000 0.000000
-1.705053 61.348871 3.275467 -5.703290 -2.388544 -6.640096 0.000000 0.000000 0.000000 0.788803 2.428394 6.120408 0.086362 -0.663199 -0.433916 5.000000 0.000000 0.000000 15.021827 3.215421 56.139241 -0.366829 1.096740 -59.215349 104.851797 23.995474 9.281427 0.000000 0.000000 0.000000 5.409008 -2.409557 -8.647135 -2.474229 3.212407 6.361302 -22.986944 7.658698 -112.626401 0.000000 0.000000 0.000000 10.009426 2.968367 10.790549 -4.089882 1.847186 -2.062931 0.000000 0.000000 0.000000 17.399242 5.072440 0.863830 -23.372977 0.632237 7.808315 0.000000 0.000000 0.000000
-1.628322 60.863147 2.663570 -4.998396 -2.619172 -7.209794 0.000000 0.000000 0.000000 0.397239 2.321789 6.213705 0.062529 -0.532388 -0.064632 5.000000 0.000000 0.000000 22.639953 2.238192 57.005398 0.684545 1.749504 -58.497165 101.372283 21.579302 10.027538 0.000000 0.000000 0.000000 7.121571 -4.243838 -13.081363 -5.532555 4.066837 12.148096 -4.145115 32.939575 -103.832013 0.000000 0.000000 0.000000 13.794143 2.375878 9.222995 -10.778620 3.028505 -0.304945 0.000000 0.000000 0.000000 13.702224 4.179732 3.066416 -22.114995 1.838619 4.397902 0.000000 0.000000 0.000000
-1.431854 60.400219 3.570182 -4.576304 -2.498806 -6.919452 0.000000 0.000000 0.000000 0.687022 2.127866 5.757286 -0.119090 -0.515984 0.042871 5.000000 0.000000 0.000000 22.270118 2.119175 57.243681 1.467338 -1.399965 -56.362367 102.399527 0.886510 8.305348 0.000000 0.000000 0.000000 8.816611 -6.166475 -19.031948 -9.035322 4.028883 19.509506 22.771644 41.642710 -81.239547 0.000000 0.000000 0.000000 15.652208 1.556942 8.817843 -11.771880 3.168258 -1.963668 0.000000 0.000000 0.000000 11.482789 3.262916 4.140139 -18.584241 2.152074 1.897452 0.000000 0.000000 0.000000
-1.269968 60.134026 4.174030 -4.289646 -2.145667 -6.038275 0.000000 0.000000 0.000000 1.316685 1.838925 4.891001 0.014295 -0.551564 0.012330 5.000000 0.000000 0.000000 17.910330 2.760296 58.626316 0.243519 -4.333844 -54.531792 117.495917 -43.954817 2.300541 0.000000 0.000000 0.000000 13.151681 -8.204461 -23.458017 -13.747682 3.478298 25.870928 61.679494 39.701594 -47.051176 0.000000 0.000000 0.000000 17.045969 0.235283 8.048990 -14.165073 3.289718 -3.668042 0.000000 0.000000 0.000000 7.815628 2.119977 2.826321 -12.038440 1.812006 1.938956 0.000000 0.000000 0.000000
-1.279289 59.619546 2.964413 -4.166980 -1.487340 -4.376423 0.000000 0.000000 0.000000 1.813770 1.073919 3.055611 0.194141 -0.616355 0.062315 5.000000 0.000000 0.000000 10.416427 3.558851 59.859015 -2.302647 -6.311550 -52.806491 0.000000 0.000000 0.000000 0.000000 0.000000 0.000000 16.138467 -9.423660 -24.092388 -15.432254 3.305293 27.550645 74.586943 34.790716 -34.634048 0.000000 0.000000 0.000000 16.759013 -1.302426 7.085995 -13.032473 3.227467 -5.504559 0.000000 0.000000 0.000000 1.685799 0.751731 -0.161643 -1.472026 0.981802 3.920230 0.000000 0.000000 0.000000
-1.521416 58.973575 0.732538 -4.058858 -0.592356 -2.134559 0.000000 0.000000 0.000000 2.310978 0.244397 1.139398 0.150943 -0.714510 -0.178222 5.000000 0.000000 0.000000 2.905388 4.199237 58.949944 -4.143886 -7.533816 -50.484551 -129.122459 8.667375 22.721715 0.000000 0.000000 0.000000 16.903993 -10.344000 -23.645961 -14.667376 4.014210 26.906470 77.144358 34.712021 -31.643688 0.000000 0.000000 0.000000 14.741374 -1.986400 5.554867 -11.835264 2.674730 -4.993460 0.000000 0.000000 0.000000 2.737188 -0.097343 -1.501821 -1.428993 0.770849 2.674186 0.000000 0.000000 0.000000
-2.188341 58.467180 -0.124290 -4.843430 0.188723 -0.293788 0.000000 0.000000 0.000000 3.892719 -0.266353 0.083247 0.084691 -0.709540 -0.577579 5.000000 0.000000 0.000000 -0.483932 4.187740 56.542703 -2.761131 -10.746949 -48.258161 -68.989460 19.219222 62.218121 0.000000 0.000000 0.000000 17.329989 -11.227876 -23.689333 -13.805652 4.724039 26.145562 80.671545 33.614017 -28.517917 0.000000 0.000000 0.000000 10.388309 -1.433936 4.814506 -7.748056 1.406397 -4.062301 0.000000 0.000000 0.000000 4.291663 -0.644496 -2.122470 -1.514219 0.691517 2.074581 0.000000 0.000000 0.000000
